<svg width="26" height="26" viewBox="0 0 26 26" fill="none" xmlns="http://www.w3.org/2000/svg">
<path d="M3.24133 12.5406C3.24133 10.7726 3.68333 9.13465 4.55867 7.63532C5.434 6.13598 6.62133 4.94865 8.12067 4.07332C9.62 3.19798 11.2493 2.76465 13.0087 2.76465C14.326 2.76465 15.5913 3.02465 16.796 3.53598C18.0007 4.04732 19.032 4.74932 19.9073 5.61598C20.7827 6.48265 21.476 7.52265 21.9873 8.73598C22.4987 9.94932 22.7587 11.206 22.7587 12.5406C22.7587 13.858 22.4987 15.1233 21.9873 16.328C21.476 17.5326 20.774 18.5726 19.9073 19.4393C19.0407 20.306 18.0007 20.9993 16.796 21.5106C15.5913 22.022 14.3347 22.282 13.0087 22.282C11.6827 22.282 10.4087 22.022 9.204 21.5106C7.99933 20.9993 6.95933 20.2973 6.084 19.4306C5.20867 18.564 4.524 17.524 4.004 16.328C3.484 15.132 3.24133 13.8666 3.24133 12.5406ZM5.39067 12.5406C5.39067 14.5947 6.136 16.38 7.63533 17.8966C9.13467 19.396 10.92 20.1413 13.0087 20.1413C14.378 20.1413 15.652 19.8033 16.8133 19.1186C17.9747 18.434 18.9107 17.5153 19.5953 16.3453C20.28 15.1753 20.6267 13.91 20.6267 12.5406C20.6267 11.1713 20.28 9.89732 19.5953 8.72732C18.9107 7.55732 17.9833 6.62998 16.8133 5.94532C15.6433 5.26065 14.378 4.92265 13.0087 4.92265C11.6393 4.92265 10.3653 5.26065 9.204 5.94532C8.04267 6.62998 7.10667 7.55732 6.41333 8.72732C5.72 9.89732 5.39067 11.1713 5.39067 12.5406ZM10.3047 16.2153C10.2773 16.1216 10.2694 16.0234 10.2813 15.9265C10.2932 15.8296 10.3247 15.7362 10.374 15.652L12.2547 12.324V6.76865C12.2547 6.56932 12.324 6.39598 12.4627 6.25732C12.6013 6.11865 12.7747 6.04932 12.974 6.04932C13.1733 6.04932 13.3467 6.11865 13.4853 6.25732C13.624 6.39598 13.6933 6.56932 13.6933 6.76865V12.5493C13.6933 12.7226 13.6413 12.87 13.5287 13.0086L11.6393 16.3886C11.5007 16.6226 11.284 16.744 10.9893 16.744C10.8507 16.744 10.738 16.718 10.6427 16.666C10.4814 16.5593 10.362 16.4 10.3047 16.2153Z" fill="black"/>
</svg>
