<svg width="128" height="128" viewBox="0 0 128 128" fill="none" xmlns="http://www.w3.org/2000/svg">
<path d="M72 29.3333C77.8667 29.3333 82.6667 24.5333 82.6667 18.6667C82.6667 12.8 77.8667 8 72 8C66.1333 8 61.3333 12.8 61.3333 18.6667C61.3333 24.5333 66.1333 29.3333 72 29.3333ZM52.2667 47.4667L37.3333 122.667H48.5333L58.1333 80L69.3333 90.6667V122.667H80V82.6667L68.8 72L72 56C78.9333 64 89.6 69.3333 101.333 69.3333V58.6667C91.2 58.6667 82.6667 53.3333 78.4 45.8667L73.0667 37.3333C70.9333 34.1333 67.7333 32 64 32C62.4 32 61.3333 32.5333 59.7333 32.5333L32 44.2667V69.3333H42.6667V51.2L52.2667 47.4667Z" fill="black"/>
</svg>
