<svg width="128" height="128" viewBox="0 0 128 128" fill="none" xmlns="http://www.w3.org/2000/svg">
<path d="M100.907 32.0533C99.84 28.9067 96.8533 26.6667 93.3333 26.6667H34.6667C31.1467 26.6667 28.2133 28.9067 27.0933 32.0533L16 64V106.667C16 109.6 18.4 112 21.3333 112H26.6667C29.6 112 32 109.6 32 106.667V101.333H96V106.667C96 109.6 98.4 112 101.333 112H106.667C109.6 112 112 109.6 112 106.667V64L100.907 32.0533ZM34.6667 85.3333C30.24 85.3333 26.6667 81.76 26.6667 77.3333C26.6667 72.9067 30.24 69.3333 34.6667 69.3333C39.0933 69.3333 42.6667 72.9067 42.6667 77.3333C42.6667 81.76 39.0933 85.3333 34.6667 85.3333ZM93.3333 85.3333C88.9067 85.3333 85.3333 81.76 85.3333 77.3333C85.3333 72.9067 88.9067 69.3333 93.3333 69.3333C97.76 69.3333 101.333 72.9067 101.333 77.3333C101.333 81.76 97.76 85.3333 93.3333 85.3333ZM26.6667 58.6667L34.6667 34.6667H93.3333L101.333 58.6667H26.6667Z" fill="black"/>
</svg>
