<svg id="visual" viewBox="0 0 960 540" width="960" height="540" xmlns="http://www.w3.org/2000/svg" xmlns:xlink="http://www.w3.org/1999/xlink" version="1.1"><rect x="0" y="0" width="960" height="540" fill="#FFFFFF"></rect><path d="M0 40L14.5 49C29 58 58 76 87.2 81.3C116.3 86.7 145.7 79.3 174.8 73.8C204 68.3 233 64.7 262 65.8C291 67 320 73 349 82.8C378 92.7 407 106.3 436.2 112.8C465.3 119.3 494.7 118.7 523.8 107.5C553 96.3 582 74.7 611 71.7C640 68.7 669 84.3 698 91.3C727 98.3 756 96.7 785.2 91C814.3 85.3 843.7 75.7 872.8 71.3C902 67 931 68 945.5 68.5L960 69L960 0L945.5 0C931 0 902 0 872.8 0C843.7 0 814.3 0 785.2 0C756 0 727 0 698 0C669 0 640 0 611 0C582 0 553 0 523.8 0C494.7 0 465.3 0 436.2 0C407 0 378 0 349 0C320 0 291 0 262 0C233 0 204 0 174.8 0C145.7 0 116.3 0 87.2 0C58 0 29 0 14.5 0L0 0Z" fill="#1E88E5" stroke-linecap="round" stroke-linejoin="miter"></path></svg>